<svg width="24" height="24" viewBox="0 0 24 24" fill="none" xmlns="http://www.w3.org/2000/svg"><path d="M12 0a6.007 6.007 0 00-5.958 5.294H6V17.21h12V5.294h-.042A6.007 6.007 0 0012 0zm4.588 15.798H7.412V9.289a1.264 1.264 0 001.087.452c.91 0 1.503-.508 1.503-1.15v-.615a.605.605 0 01.851-.62.607.607 0 01.356.62V10.3a1.32 1.32 0 001.497 1.292 1.313 1.313 0 001.496-1.236v-1.56a.951.951 0 011.333-.954.953.953 0 01.566.954.281.281 0 000 .064.797.797 0 00.473.628v6.353l.014-.042zm-5.647 7.143a1.059 1.059 0 102.118 0v-5.026H10.94v5.026z" fill="#2D3440"/></svg>