<svg width="16" height="16" viewBox="0 0 16 16" fill="none" xmlns="http://www.w3.org/2000/svg">
<path fill-rule="evenodd" clip-rule="evenodd" d="M0.5 1.91667C0.5 1.54848 0.798477 1.25 1.16667 1.25H3.4844C3.80215 1.25 4.07574 1.47426 4.1381 1.78583L4.61072 4.14716H13.9142C14.1129 4.14716 14.3012 4.23578 14.4279 4.38887C14.5545 4.54195 14.6063 4.74355 14.5691 4.93872L13.642 9.80016L13.641 9.80515L13.641 9.80515C13.5575 10.2254 13.3289 10.6029 12.9952 10.8715C12.6633 11.1387 12.2484 11.2813 11.8225 11.2748H6.20183C5.77595 11.2813 5.36111 11.1387 5.02921 10.8715C4.69562 10.603 4.46706 10.2257 4.3835 9.80571L4.38338 9.80515L3.416 4.97182C3.41176 4.95438 3.40821 4.93667 3.40537 4.91872L2.93794 2.58333H1.16667C0.798477 2.58333 0.5 2.28486 0.5 1.91667ZM5.80307 12.2597C5.1151 12.2597 4.55739 12.8175 4.55739 13.5054C4.55739 14.1934 5.1151 14.7511 5.80307 14.7511C6.49105 14.7511 7.04876 14.1934 7.04876 13.5054C7.04876 12.8175 6.49105 12.2597 5.80307 12.2597ZM12.1764 12.2597C11.4884 12.2597 10.9307 12.8175 10.9307 13.5054C10.9307 14.1934 11.4884 14.7511 12.1764 14.7511C12.8644 14.7511 13.4221 14.1934 13.4221 13.5054C13.4221 12.8175 12.8644 12.2597 12.1764 12.2597Z" fill="#2D3440"/>
</svg>
