<svg width="16" height="16" viewBox="0 0 16 16" fill="none" xmlns="http://www.w3.org/2000/svg"><path fill-rule="evenodd" clip-rule="evenodd" d="M.5 1.917c0-.369.298-.667.667-.667h2.317c.318 0 .592.224.654.536l.473 2.361h9.303a.667.667 0 01.655.792L13.642 9.8l-.001.005a1.826 1.826 0 01-1.819 1.47h-5.62a1.825 1.825 0 01-1.819-1.47l-.967-4.833a.664.664 0 01-.01-.053l-.468-2.336H1.167A.667.667 0 01.5 1.917zM5.803 12.26a1.246 1.246 0 100 2.491 1.246 1.246 0 000-2.491zm6.373 0a1.246 1.246 0 100 2.491 1.246 1.246 0 000-2.491z" fill="#2D3440"/></svg>