<svg width="15" height="14" viewBox="0 0 15 14" fill="none" xmlns="http://www.w3.org/2000/svg"><path fill-rule="evenodd" clip-rule="evenodd" d="M1.167.25a.667.667 0 100 1.333h1.77l.468 2.336a.664.664 0 00.011.053l.967 4.833a1.826 1.826 0 001.819 1.47h5.62a1.826 1.826 0 001.819-1.47l.001-.005.927-4.861a.667.667 0 00-.655-.792H4.611L4.138.786A.667.667 0 003.484.25H1.167zM5.69 8.544L4.878 4.48h8.23l-.775 4.067a.492.492 0 01-.492.395H6.183a.492.492 0 01-.492-.397zm-1.134 3.961a1.246 1.246 0 112.492 0 1.246 1.246 0 01-2.492 0zm6.374 0a1.246 1.246 0 112.491 0 1.246 1.246 0 01-2.491 0z" fill="#2D3440"/></svg>